<?xml version="1.0" ?><!-- Uploaded to: SVG Repo, www.svgrepo.com, Generator: SVG Repo Mixer Tools -->
<svg width="800px" height="800px" viewBox="0 0 64 64" data-name="Layer 1" id="Layer_1" xmlns="http://www.w3.org/2000/svg"><defs><style>.cls-1{fill:#190933;}</style></defs><title/><path class="cls-1" d="M24.5,33c0,2.92,3.86,4.5,7.5,4.5s7.5-1.58,7.5-4.5c0-4.37-6.73-4.5-7.5-4.5S24.5,28.63,24.5,33Zm14,0c0,2.19-3.3,3.5-6.5,3.5s-6.5-1.31-6.5-3.5c0-3.46,6.23-3.5,6.5-3.5S38.5,29.54,38.5,33Z"/><path class="cls-1" d="M41,49.5H35a.5.5,0,0,0,0,1h6a.5.5,0,0,0,0-1Z"/><path class="cls-1" d="M44.44,12.86l.43,1.06a4,4,0,0,0,3.51,2.47,35.12,35.12,0,0,0,10.53-1,4.84,4.84,0,0,0,3-7h0L59.94,4.82A8.94,8.94,0,0,0,53.15.21c-5.29-.6-14.26-.22-27,5S6.79,16.51,3.46,20.66a8.92,8.92,0,0,0-1.58,8.06L3,32.6a4.85,4.85,0,0,0,2,2.68,6.22,6.22,0,0,0,.56.32c-.29.28-.61.57-.94.87s-.53.47-.79.72a1,1,0,0,0,0,1.42,1,1,0,0,0,.73.31,1,1,0,0,0,.68-.27c.26-.23.51-.47.77-.69A18.13,18.13,0,0,0,7.76,36.1,4.87,4.87,0,0,0,10,35.48a34.26,34.26,0,0,0,8.2-6.68,4,4,0,0,0,1-2.17,9.33,9.33,0,0,0,1.32,1.71A7.32,7.32,0,0,0,19,33a8.33,8.33,0,0,1-4.46,7.66,4.9,4.9,0,0,0-2.06,2.14l-3,5.91A5,5,0,0,0,9,50.94V52H8a3,3,0,0,0,0,6H9.18A3,3,0,0,0,11,59.82V60a4,4,0,0,0,4,4H49a4,4,0,0,0,4-4v-.18A3,3,0,0,0,55,57V50.94a5,5,0,0,0-.53-2.23L51.52,42.8a4.9,4.9,0,0,0-2.06-2.14A8.33,8.33,0,0,1,45,33a7.32,7.32,0,0,0-1.56-4.66,14.07,14.07,0,0,0,3.4-7.9A3,3,0,0,0,46.11,18a3.06,3.06,0,0,0-2.28-1,3,3,0,0,0-3,2.45,7.54,7.54,0,0,1-3.63,5.23,20.45,20.45,0,0,0-10.46,0,7.54,7.54,0,0,1-3.63-5.23h0a3,3,0,0,0-3-2.45,3.06,3.06,0,0,0-2.28,1,3,3,0,0,0-.73,2.41c.07.54.17,1.06.28,1.58-.1-.09-.2-.18-.32-.27A2.86,2.86,0,0,1,16,19.15a1.87,1.87,0,0,1,1.18-1.58l24-9.89a1.89,1.89,0,0,1,2,.28,2.91,2.91,0,0,1,1,2.64A4.16,4.16,0,0,0,44.44,12.86ZM7,55a1,1,0,0,1,1-1H9v2H8A1,1,0,0,1,7,55Zm42,7H15a2,2,0,0,1-2-2H51A2,2,0,0,1,49,62ZM22.6,58a14.1,14.1,0,0,0,.83-1.24c.73-1.21,1.35-2.26,2.57-2.26H38c1.22,0,1.84,1,2.57,2.26A14.1,14.1,0,0,0,41.4,58ZM48.52,42.42a3,3,0,0,1,1.21,1.27l2.9,5.81H45a.5.5,0,0,0,0,1h8a3.29,3.29,0,0,1,0,.44V57a1,1,0,0,1-1,1H42.73a7.18,7.18,0,0,1-1.3-1.76C40.66,55,39.78,53.5,38,53.5H26c-1.78,0-2.66,1.46-3.43,2.74A7.18,7.18,0,0,1,21.27,58H12a1,1,0,0,1-1-1V50.94a3.29,3.29,0,0,1,.05-.44H31a.5.5,0,0,0,0-1H11.37l2.9-5.81a3,3,0,0,1,1.21-1.27A10.43,10.43,0,0,0,20.27,37c2.24,3.24,7.09,5,11.73,5s9.49-1.72,11.73-5A10.43,10.43,0,0,0,48.52,42.42ZM39.61,25.5a10.23,10.23,0,0,0,3.21-5.67,1,1,0,0,1,1-.83,1,1,0,0,1,1,1.19A12.27,12.27,0,0,1,42,26.93l-.12-.08c-.28-.21-.57-.41-.88-.6l-.34-.2c-.29-.16-.59-.31-.89-.45Zm-2.44,1.25c.37.11.73.23,1.07.36l.22.09a9.14,9.14,0,0,1,.95.43l.13.06a7.72,7.72,0,0,1,.93.58h0a8.07,8.07,0,0,1,.82.69A5.4,5.4,0,0,1,43,33c0,4.38-5.59,7-11,7s-11-2.62-11-7a5.4,5.4,0,0,1,1.68-4,8.07,8.07,0,0,1,.82-.69h0a7.72,7.72,0,0,1,.93-.58l.13-.06a9.14,9.14,0,0,1,.95-.43l.22-.09q.51-.2,1.08-.36A20.57,20.57,0,0,1,32,26,20.68,20.68,0,0,1,37.17,26.75Zm-17.78-7.4a1.05,1.05,0,0,1,.78-.35,1,1,0,0,1,1,.83,10.23,10.23,0,0,0,3.21,5.67l-.19.1c-.3.14-.6.29-.89.46l-.34.19c-.31.19-.6.39-.88.6l-.12.08a12.27,12.27,0,0,1-2.83-6.74A1.06,1.06,0,0,1,19.39,19.35Zm41-8.1a2.85,2.85,0,0,1-2.05,2.19,32.92,32.92,0,0,1-9.89,1,2,2,0,0,1-1.76-1.24l-.43-1.06a2.13,2.13,0,0,1-.11-1.17,4,4,0,0,0,0-.84A127.64,127.64,0,0,0,59.74,8.61l.39.72A2.84,2.84,0,0,1,60.42,11.25Zm-43.72,13,.43,1.06a2,2,0,0,1-.38,2.12,32.7,32.7,0,0,1-7.69,6.29,2.85,2.85,0,0,1-4.14-1.69l-.23-.78a131.38,131.38,0,0,0,10.63-8.46,4.75,4.75,0,0,0,.62.56A2.2,2.2,0,0,1,16.7,24.27ZM40.46,5.83l-24,9.89A3.87,3.87,0,0,0,14,18.91a4.82,4.82,0,0,0,.7,3.1A129,129,0,0,1,4.4,30.25l-.6-2.08A6.94,6.94,0,0,1,5,21.91c3.18-4,9.56-9.76,21.9-14.83C36.63,3.08,44,2,49.2,2a33.66,33.66,0,0,1,3.72.2,7,7,0,0,1,5.27,3.58l1,1.91a130.66,130.66,0,0,1-13.12,1.4A4.87,4.87,0,0,0,44.42,6.4,3.86,3.86,0,0,0,40.46,5.83Z"/><path class="cls-1" d="M2.16,53.06a1,1,0,0,0,.81.41,1,1,0,0,0,.59-.19,1,1,0,0,0,.22-1.4,8.8,8.8,0,0,1-1.42-3.27,1,1,0,0,0-1.95.44A10.85,10.85,0,0,0,2.16,53.06Z"/><path class="cls-1" d="M1,45.86a1,1,0,0,0,1-1,7.32,7.32,0,0,1,.83-3.39,1,1,0,0,0-.42-1.35,1,1,0,0,0-1.35.42A9.2,9.2,0,0,0,0,44.84a1,1,0,0,0,1,1Z"/><path class="cls-1" d="M10.65,3.65a.48.48,0,0,0,0,.7l1,1a.48.48,0,0,0,.7,0,.48.48,0,0,0,0-.7l-1-1A.48.48,0,0,0,10.65,3.65Z"/><path class="cls-1" d="M14.5,5V4a.5.5,0,0,0-1,0V5a.5.5,0,0,0,1,0Z"/><path class="cls-1" d="M11,7.5h1a.5.5,0,0,0,0-1H11a.5.5,0,0,0,0,1Z"/></svg>